PathFileType	4	(X/Y/Z)	P:\Projects\LMB_grand_challenge_database\project_only\opensim\experimental_data\SixthCompetition/DM_ngait_og4_new.trc
DataRate	CameraRate	NumFrames	NumMarkers	Units	OrigDataRate	OrigDataStartFrame	OrigNumFrames
120	120	7	68	mm	120	0	374
Frame#	Time	Sternum			Neck			R_Shoulder			L_Shoulder			Xiphoid			Thoracic			R_Asis			L_Asis			R_Psis			L_Psis			Lumbar			R_Elbow			R_ElbowMedial			R_ShoulderAnterior			R_ShoulderPosterior			R_Wrist			R_Radius			R_Ulna			L_Elbow			L_ElbowMedial			L_ShoulderAnterior			L_ShoulderPosterior			L_Wrist			L_Ulna			L_Radius			L_Thigh_Superior			L_Thigh_Inferior			L_Thigh_Lateral			L_Knee_Lateral			L_Knee_Medial			L_Patella			L_Shank_Superior			L_Shank_Inferior			L_Shank_Lateral			L_Ankle_Lateral			L_Ankle_Medial			R_Thigh_Superior			R_Thigh_Inferior			R_Thigh_Lateral			R_Knee_Lateral			R_Knee_Medial			R_Patella			R_Shank_Superior			R_Shank_Inferior			R_Shank_Lateral			R_Ankle_Lateral			RankleMedial			R_Heel			R_Toe			R_Midfoot_Medial			R_Midfoot_Lateral			R_Hindfoot			R_Midfoot_Superior			R_ToeMedial			R_ToeLateral			L_Heel			L_Toe			L_Midfoot_Medial			L_Midfoot_Lateral			L_Hindfoot			L_Midfoot_Superior			L_ToeMedial			L_ToeLateral			Oglobal			Sacral			Xglobal			Yglobal			Zglobal			
		X1	Y1	Z1	X2	Y2	Z2	X3	Y3	Z3	X4	Y4	Z4	X5	Y5	Z5	X6	Y6	Z6	X7	Y7	Z7	X8	Y8	Z8	X9	Y9	Z9	X10	Y10	Z10	X11	Y11	Z11	X12	Y12	Z12	X13	Y13	Z13	X14	Y14	Z14	X15	Y15	Z15	X16	Y16	Z16	X17	Y17	Z17	X18	Y18	Z18	X19	Y19	Z19	X20	Y20	Z20	X21	Y21	Z21	X22	Y22	Z22	X23	Y23	Z23	X24	Y24	Z24	X25	Y25	Z25	X26	Y26	Z26	X27	Y27	Z27	X28	Y28	Z28	X29	Y29	Z29	X30	Y30	Z30	X31	Y31	Z31	X32	Y32	Z32	X33	Y33	Z33	X34	Y34	Z34	X35	Y35	Z35	X36	Y36	Z36	X37	Y37	Z37	X38	Y38	Z38	X39	Y39	Z39	X40	Y40	Z40	X41	Y41	Z41	X42	Y42	Z42	X43	Y43	Z43	X44	Y44	Z44	X45	Y45	Z45	X46	Y46	Z46	X47	Y47	Z47	X48	Y48	Z48	X49	Y49	Z49	X50	Y50	Z50	X51	Y51	Z51	X52	Y52	Z52	X53	Y53	Z53	X54	Y54	Z54	X55	Y55	Z55	X56	Y56	Z56	X57	Y57	Z57	X58	Y58	Z58	X59	Y59	Z59	X60	Y60	Z60	X61	Y61	Z61	X62	Y62	Z62	X63	Y63	Z63	X64	Y64	Z64	X65	Y65	Z65	X66	Y66	Z66	X67	Y67	Z67	X68	Y68	Z68	

1	2.225	-1370.16	1392.99	108.42	-1537	1464.47	135.662	-1414.45	1417.42	288.969	-1488.62	1443.14	-49.1785	-1346.39	1225.71	107.1	-1620.88	1275.72	131.852	-1421.8	994.692	251.648	-1428.13	988.7329999999999	-21.9787	-1628.63	1029.66	152.585	-1631.84	1025	73.6978	-1627.96	1076.74	111.814	-1422.16	1104.97	397.485	-0	0	0	-0	0	0	-0	0	0	-1323.03	842.657	360.789	-1331.25	856.119	318.066	-1367	845.872	381.599	-1505.37	1104.09	-150.165	-0	0	0	-0	0	0	-0	0	0	-1414.75	852.378	-136.322	-1459	854.0839999999999	-153.428	-1422.62	866.711	-91.8282	-1452.27	821.883	-59.5967	-1345.83	621.912	-43.0192	-1334.14	719.717	-16.1607	-0	0	0	-0	0	0	-1287.44	523.421	0.90413	-1391.73	481.69	-48.6494	-1559.39	271.108	-34.915	-1442.38	346.552	23.3891	-0	0	0	-0	0	0	-1497.86	802.903	273.248	-1484.35	589.885	222.287	-1415.52	716.151	243.186	-0	0	0	-0	0	0	-1413.48	503.646	142.565	-1533.87	397.444	230.373	-1560.65	192.203	208.351	-1486.61	306.786	139.546	-0	0	0	-0	0	0	-1663.58	65.73860000000001	156.335	-1363.39	50.538	141.559	-1445.21	30.1684	94.15730000000001	-1450.85	25.1939	211.187	-1561.04	27.7252	203.507	-1497.7	118.426	153.521	-1400.48	38.4959	100.963	-1402.12	38.5179	192.385	-1679.53	207.101	26.2933	-1437.88	38.2221	3.6044	-1504.64	68.5779	63.5956	-1526.64	69.1422	-48.7519	-1614.59	121.578	-33.3405	-1510.04	167.302	5.2703	-1470.45	46.0954	52.4371	-1476.68	45.3583	-42.6076	-0	0	0	-1630.23	1027.33	113.141	-200	0	0	-0	0	200	-0	200	0	
2	2.233333	-1362.15	1393.08	108.147	-1528.7	1464.58	135.899	-1405.78	1417.62	288.798	-1481.07	1443.04	-49.1864	-1338.58	1225.5	106.624	-1612.88	1276.05	132.303	-1413.55	996.417	251.238	-1421.03	988.484	-22.5851	-1621.4	1029.05	153.68	-1624.49	1026.41	73.836	-1620.46	1077.07	111.555	-1410.01	1105.13	397.406	-0	0	0	-0	0	0	-0	0	0	-1308.42	843.893	358.544	-1317.4	857.865	315.616	-1351.3	846.605	379.003	-1502.84	1104.31	-149.984	-0	0	0	-0	0	0	-0	0	0	-1413.72	852.914	-137.867	-1461.06	853.58	-154.556	-1423.49	865.432	-93.911	-1444.64	823.1319999999999	-59.8143	-1335	624.093	-41.9917	-1331.2	719.2380000000001	-16.5391	-0	0	0	-0	0	0	-1276.53	527.066	1.11921	-1377.71	482.309	-48.4015	-1537	264.51	-36.079	-1423.57	345.11	23.1241	-0	0	0	-0	0	0	-1490.32	802.208	270.75	-1480.61	589.7190000000001	222.458	-1410.4	715.472	243.078	-0	0	0	-0	0	0	-1410.76	503.299	142.438	-1531.86	397.543	230.678	-1559.74	192.432	208.408	-1483.77	306.107	138.131	-0	0	0	-0	0	0	-1663.48	66.09139999999999	156.443	-1363.37	50.3896	141.605	-1445.28	30.257	93.8317	-1450.76	24.9083	210.852	-1560.93	27.6288	203.397	-1497.36	118.471	153.561	-1400.34	38.3359	100.929	-1402.08	38.4602	192.562	-1655.26	195.251	25.4126	-1399.53	42.5208	4.8982	-1474.52	63.9926	61.0526	-1496.13	65.54040000000001	-51.3601	-1588.01	114.273	-35.0448	-1484.1	163.383	4.41956	-1439.37	43.6139	51.3723	-1443.43	43.4196	-43.5616	-0	0	0	-1622.95	1027.73	113.758	-200	0	0	-0	0	200	-0	200	0	
3	2.241667	-1353.94	1392.85	107.937	-1520.47	1464.72	135.908	-1397.15	1417.63	288.532	-1473.68	1443	-49.549	-1330.26	1225.41	106.497	-1604.95	1276.28	132.606	-1405.94	996.385	251.046	-1414	988.288	-22.8738	-1613.9	1029.49	153.885	-1617.14	1026.81	73.9914	-1612.93	1077.48	111.675	-1397.64	1105.01	396.951	-0	0	0	-0	0	0	-0	0	0	-1293.83	844.976	356.201	-1303.61	859.109	313.477	-1336.93	847.475	377.744	-1500.44	1104.56	-149.904	-0	0	0	-0	0	0	-0	0	0	-1419.21	849.0119999999999	-140.9	-1463.23	852.793	-155.443	-1424.41	863.909	-96.0146	-1437.23	824.127	-60.447	-1324.89	626.345	-41.0073	-1313.02	726.349	-11.8696	-0	0	0	-0	0	0	-1265.37	530.3819999999999	1.62385	-1364.23	482.607	-47.9747	-1514.67	258.03	-37.044	-1404.98	343.023	23.0539	-0	0	0	-0	0	0	-1483.36	801.597	269.112	-1477	589.8579999999999	222.592	-1404.67	714.526	242.516	-0	0	0	-0	0	0	-1407.71	502.453	142.517	-1529.5	397.579	230.581	-1558.84	192.701	208.429	-1482.55	306.63	139.231	-0	0	0	-0	0	0	-1663.3	66.479	156.414	-1363.27	50.3059	141.541	-1445.12	30.1341	94.0043	-1450.71	24.8856	211.024	-1560.97	27.8374	203.455	-1497.13	118.484	153.626	-1400.21	38.1737	100.906	-1402.03	38.4054	192.458	-1629.32	182.887	23.3058	-1366.02	43.4773	3.51463	-1442.69	60.0091	58.449	-1463.19	62.7104	-54.1493	-1559.76	106.456	-37.9753	-1457.01	159.962	3.67996	-1406.04	42.8198	49.3667	-1411.17	41.9911	-45.298	-0	0	0	-1615.52	1028.15	113.938	-200	0	0	-0	0	200	-0	200	0	
4	2.25	-1345.73	1392.59	107.425	-1512.09	1464.73	135.826	-1388.53	1417.41	288.296	-1465.92	1442.71	-49.6462	-1322.98	1224.95	106.161	-1596.94	1276.52	132.9	-1398.23	996.086	250.741	-1406.7	988.115	-23.2506	-1606.23	1029.7	153.831	-1609.57	1027.06	74.0171	-1605.23	1077.71	111.653	-1385.68	1104.99	396.67	-0	0	0	-0	0	0	-0	0	0	-1279.41	846.092	353.41	-1290.12	860.4299999999999	310.952	-1322.45	848.254	375.992	-1497.83	1104.8	-149.787	-0	0	0	-0	0	0	-0	0	0	-1421.47	847.033	-143.394	-1466.07	852.894	-156.958	-1424.77	862.769	-97.8989	-1429.09	824.619	-61.1382	-1314.76	628.106	-39.881	-1303.96	728.025	-10.5769	-0	0	0	-0	0	0	-1253.79	533.597	2.6394	-1351.22	482.816	-47.3701	-1491.85	251.425	-38.0836	-1386.36	341.184	23.0463	-0	0	0	-0	0	0	-1479	802.42	270.667	-1473.01	589.616	222.414	-1400.11	714.08	243.005	-0	0	0	-0	0	0	-1405.09	501.903	142.49	-1527.46	397.799	230.71	-1557.94	192.898	208.434	-1481.07	307.09	139.918	-0	0	0	-0	0	0	-1663.19	66.9117	156.466	-1363.18	50.0418	141.416	-1445.13	30.026	93.95569999999999	-1450.69	24.7087	210.974	-1560.9	27.9082	203.492	-1496.85	118.482	153.658	-1400.1	38.045	100.913	-1402.04	38.3493	192.528	-1603.27	170.815	21.9619	-1334.06	44.3214	1.51297	-1411.1	56.2113	55.1944	-1431.85	59.603	-57.3403	-1531.39	98.93000000000001	-40.1429	-1429.71	156.148	1.8565	-1373.54	41.6456	47.2835	-1378.41	40.9328	-47.5367	-0	0	0	-1607.9	1028.38	113.924	-200	0	0	-0	0	200	-0	200	0	
5	2.258333	-1337.58	1392.2	107.096	-1503.61	1464.63	135.825	-1379.83	1417.04	287.935	-1458.01	1442.26	-49.8453	-1315.08	1224.49	105.82	-1588.87	1276.59	133.15	-1390.6	996.3	250.714	-1399.21	987.86	-23.3389	-1598.64	1029.76	153.869	-1601.92	1027.26	74.0539	-1597.6	1077.84	111.552	-1373.45	1104.69	396.115	-0	0	0	-0	0	0	-0	0	0	-1265.33	847.066	351.026	-1276.56	861.664	308.856	-1308.01	848.735	374.112	-1495.13	1104.94	-149.572	-0	0	0	-0	0	0	-0	0	0	-1423.35	845.967	-145.148	-1468.81	852.934	-158.368	-1425.42	861.533	-99.8717	-1421.2	825.163	-61.5983	-1305.36	629.694	-38.5638	-1295.25	729.4690000000001	-9.61891	-0	0	0	-0	0	0	-1242.75	536.78	3.99897	-1338.39	482.564	-46.6881	-1468.69	244.816	-38.993	-1367.41	340.631	22.8638	-0	0	0	-0	0	0	-1473.94	802.896	271.461	-1469.45	589.6369999999999	222.628	-1395.08	713.3869999999999	243.073	-0	0	0	-0	0	0	-1401.94	500.843	142.716	-1525.21	397.743	230.668	-1557.15	193.132	208.563	-1479.28	307.101	140.138	-0	0	0	-0	0	0	-1662.97	67.2953	156.557	-1363.04	49.91	141.528	-1445.03	29.7197	94.0459	-1450.58	24.5847	211.073	-1560.82	28.1266	203.57	-1496.5	118.4	153.634	-1400.08	37.9384	100.903	-1401.95	38.4364	192.597	-1576.55	158.696	21.054	-1301.53	45.5337	-1.7582	-1378.88	53.1686	52.0354	-1400.41	56.7587	-60.3468	-1502.37	91.3574	-41.8745	-1402.58	152.654	-0.108389	-1340.45	40.6571	44.5317	-1345.61	40.2542	-50.3215	-0	0	0	-1600.28	1028.51	113.962	-200	0	0	-0	0	200	-0	200	0	
6	2.266667	-1329.33	1391.61	106.588	-1495.13	1464.43	135.729	-1371.06	1416.49	287.533	-1450.04	1441.78	-50.056	-1307.01	1223.91	105.383	-1580.81	1276.61	133.226	-1382.81	995.766	250.383	-1391.76	987.46	-23.7872	-1590.87	1029.79	153.754	-1594.24	1027.31	73.91849999999999	-1589.78	1077.87	111.426	-1361.49	1104.5	395.485	-0	0	0	-0	0	0	-0	0	0	-1251.09	848.0119999999999	348.173	-1263.56	862.5549999999999	306.532	-1293.85	849.249	372.179	-1492.42	1104.99	-149.262	-0	0	0	-0	0	0	-0	0	0	-1425.27	844.927	-146.957	-1471.73	853.271	-160.033	-1425.96	860.2190000000001	-101.798	-1413.31	825.377	-62.0087	-1296.15	630.816	-37.0966	-1286.9	730.638	-8.636100000000001	-0	0	0	-0	0	0	-1233.18	539.485	5.37101	-1326.1	482.056	-46.1444	-1445.46	238.461	-39.8971	-1349.55	338.704	22.1707	-0	0	0	-0	0	0	-1467.99	803.0359999999999	271.435	-1465.99	589.6319999999999	223.043	-1389.93	712.6559999999999	243.032	-0	0	0	-0	0	0	-1399.38	500.226	142.561	-1523.11	397.836	230.681	-1556.34	193.381	208.621	-1477.38	307.202	139.929	-0	0	0	-0	0	0	-1662.86	67.67529999999999	156.588	-1362.76	50.0981	140.986	-1445.01	29.7357	93.9897	-1450.53	24.5201	211.014	-1560.78	28.2035	203.592	-1496.35	118.449	153.662	-1399.5	38.3478	102.021	-1401.96	38.3124	192.464	-1549.24	146.912	20.1411	-1269.01	47.3108	-5.54253	-1346.71	50.3724	48.9626	-1368.97	54.236	-63.2678	-1472.75	84.1195	-43.6111	-1375.83	149.225	-1.83918	-1307.4	40.3032	41.1162	-1313.22	40.7122	-53.8109	-0	0	0	-1592.55	1028.55	113.836	-200	0	0	-0	0	200	-0	200	0	
7	2.275	-1321.09	1391.07	106.043	-1486.64	1464.1	135.577	-1362.18	1415.85	287.008	-1442.09	1441.26	-50.538	-1299.34	1223.33	105.071	-1572.82	1276.51	133.208	-1375.15	995.548	249.964	-1384.41	986.795	-24.0715	-1583.24	1029.72	153.496	-1586.68	1027.31	73.7777	-1582.1	1077.83	111.15	-1349.46	1104.12	394.503	-0	0	0	-0	0	0	-0	0	0	-1237.4	849.013	345.796	-1250.82	863.582	304.245	-1279.1	849.491	369.172	-1489.56	1105.05	-148.93	-0	0	0	-0	0	0	-0	0	0	-1427.1	844.125	-148.476	-1473.58	852.854	-160.759	-1426	859.044	-103.618	-1405.3	825.367	-62.669	-1287.34	631.569	-35.5384	-1278.68	731.341	-7.22083	-0	0	0	-0	0	0	-1223.24	541.564	7.15796	-1314.72	481.663	-45.7216	-1422.37	232.45	-40.9135	-1331.29	336.553	21.8071	-0	0	0	-0	0	0	-1461.54	802.836	270.95	-1461.93	589.377	222.552	-1384.95	712.075	242.964	-0	0	0	-0	0	0	-1396.58	499.116	142.766	-1521.04	397.918	230.697	-1555.56	193.705	208.605	-1475.63	307.326	140.007	-0	0	0	-0	0	0	-1662.77	67.973	156.519	-1362.86	49.6826	141.323	-1444.99	29.6242	93.9385	-1450.55	24.3299	210.958	-1560.71	28.2595	203.524	-1496.13	118.408	153.668	-1398.93	38.626	102.003	-1401.9	38.2698	192.379	-1521.83	135.444	19.2517	-1236.79	49.9936	-9.06443	-1314.76	48.3198	45.7123	-1338.06	52.075	-66.31059999999999	-1443.02	77.1981	-45.3242	-1348.64	146.13	-4.03513	-1274.07	40.6647	37.2569	-1281.12	41.5164	-57.5979	-0	0	0	-1584.96	1028.51	113.637	-200	0	0	-0	0	200	-0	200	0	
